<svg xmlns="http://www.w3.org/2000/svg" viewBox="0 0 212.5 26.1" enable-background="new 0 0 212.5 26.1"><path fill="#010101" d="M10.7 14.5c3.2.5 5.6 1.9 5.6 5.1 0 2.1-1.1 3.8-3 4.8-1.6.9-3.7 1.3-6.3 1.3H0v-.9c2.7-.2 2.9-.4 2.9-3v-13c0-2.6-.1-2.8-2.7-3v-.9h8.2c2.4 0 3.8.4 4.8 1.1 1.2.7 1.8 2.1 1.8 3.6 0 3-2.5 4.3-4.3 4.9zm-3.6-.4c3.5 0 4.9-1.4 4.9-4.1 0-2.2-1.2-4.1-4.2-4.1-.7 0-1.4.1-1.7.3-.4.2-.5.6-.5 1.6v6.3h1.5zm-1.5 7.5c0 2.3.6 2.9 2.6 2.9 2.6 0 4.9-1.3 4.9-4.7 0-3.3-2.2-4.7-6.1-4.7H5.6v6.5zm28.6-3.5c0 5.3-4.1 8-7.9 8-5.1 0-8-3.8-8-7.5 0-5.6 4.5-8.1 8-8.1 4.7-.1 7.9 3.2 7.9 7.6zm-12.9-.3c0 4.3 2.2 7.3 5.3 7.3 2.4 0 4.6-1.8 4.6-6.4 0-3.6-1.9-7.3-5.2-7.3-2.5 0-4.7 2.2-4.7 6.4zm35.6-6.1c-1.7.2-1.9.5-2.6 2.1-.6 1.7-2.1 6.1-4.1 12.2h-.9l-4.1-10.4h-.1L41.2 26h-.9l-3.8-12c-.6-1.9-1-2.1-2.5-2.3v-.9h6.4v.9l-.7.1c-1 .2-1.2.3-.8 1.5l2.7 8.6h.1l3.8-10.6h.8l4.1 10.5h.1c.8-2.4 2-6.3 2.5-8.4.3-1.1.1-1.4-1-1.6l-.8-.1v-.9h5.6v.9zm7.7-.9c2.7 0 5.1.5 6.7 2 1.1 1.1 2 2.8 2 4.9 0 5.5-4.4 7.9-9.6 7.9h-6.4v-.9c2.1-.2 2.3-.4 2.3-2.6v-7.9c0-2.4-.2-2.5-2.1-2.6v-.9h7.1zM62.2 22c0 2 .5 2.5 2.3 2.5 3.8 0 5.8-2.5 5.8-6.4 0-4.7-2.6-6.3-6.1-6.3-.9 0-1.6.2-1.8.4-.2.2-.3.6-.3 1.5V22zm28.7-3.9c0 5.3-4.1 8-7.9 8-5.1 0-8-3.8-8-7.5 0-5.6 4.5-8.1 8-8.1 4.7-.1 7.9 3.2 7.9 7.6zM78 17.8c0 4.3 2.2 7.3 5.3 7.3 2.4 0 4.6-1.8 4.6-6.4 0-3.6-1.9-7.3-5.2-7.3-2.4 0-4.7 2.2-4.7 6.4zm13.9 7.8v-.9c2-.2 2.2-.3 2.2-2.6v-7.9c0-2.3-.2-2.5-2.2-2.6v-.9H99v.9c-2.1.2-2.3.3-2.3 2.6v7.9c0 2.3.2 2.5 2.3 2.6v.9h-7.1zm24.7-13.9c-1.5.1-2.1.4-2.2 1.4-.1.9-.2 1.9-.2 4.1v8.6h-1.1l-9.6-11.6v5c0 2.2.1 3.4.2 4.1.1 1 .7 1.3 2.5 1.4v.9H100v-.9c1.5-.1 2-.4 2.2-1.4.1-.8.2-1.9.2-4.1V15c0-2.6-.5-3.1-2.7-3.3v-.9h4.3l9.1 10.4h.1v-4.1c0-2.2-.1-3.3-.2-4.1-.1-1.1-.6-1.3-2.5-1.4v-.9h6.2v1zm27.2 3.3c0 6.9-4.8 11.1-10.7 11.1-5.8 0-10.4-4.5-10.4-10.6 0-5.7 4-11.1 10.8-11.1 5.4 0 10.3 4.2 10.3 10.6zm-17.8-.4c0 6 3.3 10.4 7.8 10.4 3.6 0 6.7-3 6.7-9.1 0-6.7-3.5-10.3-7.7-10.3-3.6-.1-6.8 3-6.8 9zm33.9 11.2h-.7c-2.6 0-3.6-.7-4.5-2.1-.7-1-1.6-2.5-2-3.3-.6-1-.9-1.2-2.2-1.2h-.7v3c0 2.2.2 2.4 2.3 2.6v.9H145v-.9c2.1-.2 2.3-.3 2.3-2.6v-7.9c0-2.3-.2-2.4-2.2-2.6v-.9h7c1.6 0 2.8.2 3.8.8.9.6 1.6 1.6 1.6 3.1 0 2.1-1.5 3.3-3 3.8.4.6 1.4 2.3 2.1 3.3.8 1.1 1.2 1.7 1.8 2.2.5.6 1.2.9 1.8 1.1l-.3.7zm-8.8-7.6c.9 0 1.7-.1 2.3-.5.8-.5 1.2-1.6 1.2-2.7 0-2.3-1.6-3.3-3.4-3.3-1.3 0-1.5.3-1.5 1.2v5.2h1.4zm8.8 7.4v-.9c2-.2 2.2-.3 2.2-2.6v-7.9c0-2.3-.2-2.5-2.2-2.6v-.9h7.1v.9c-2.1.2-2.3.3-2.3 2.6v7.9c0 2.3.2 2.5 2.3 2.6v.9h-7.1zm21.1-3.9c-.2 1-.6 3.3-.8 3.9h-12.3v-.9c2.3-.2 2.4-.4 2.4-2.6v-7.8c0-2.3-.2-2.5-2.2-2.6v-.9h11.5c0 .6.1 2.2.3 3.7l-.9.1c-.3-1-.5-1.5-.9-1.9-.4-.5-.9-.7-2.6-.7h-1.7c-.8 0-.9 0-.9.9v4.6h2.3c1.9 0 2.1-.2 2.4-1.8h.9v4.8h-.9c-.3-1.6-.4-1.9-2.4-1.9h-2.3v3.7c0 1.2.2 1.8.5 2s1.1.3 2.5.3c1.6 0 2.5-.2 3-.8.4-.4.8-1.1 1.2-2.3l.9.2zm17.3-10c-1.5.1-2.1.4-2.2 1.4-.1.9-.2 1.9-.2 4.1v8.6h-1.1l-9.6-11.6v5c0 2.2.1 3.4.2 4.1.1 1 .7 1.3 2.5 1.4v.9h-6.2v-.9c1.5-.1 2-.4 2.2-1.4.1-.8.2-1.9.2-4.1V15c0-2.6-.5-3.1-2.7-3.3v-.9h4.3l9.1 10.4h.1v-4.1c0-2.2-.1-3.3-.2-4.1-.1-1.1-.6-1.3-2.5-1.4v-.9h6.2v1zm13.3 3.2c-.3-1.2-.5-1.9-.8-2.4-.4-.5-1.1-.7-2.5-.7h-1.4V22c0 2.3.2 2.5 2.5 2.6v.9h-7.5v-.9c2.2-.2 2.4-.3 2.4-2.6V11.8h-1c-2 0-2.5.2-2.9.8-.3.5-.5 1.1-.8 2.3h-.9c.1-1.9.3-3.5.3-4.6h.7c.4.5.6.6 1.2.5h9.5c.6 0 .8-.1 1.2-.5h.7c0 1 .1 3.2.3 4.6h-1zM35.6 6.9c-.2.4-.3.7-.5.9-.3.2-.6.3-1.1.3-.5 0-.8 0-1-.1-.2-.1-.2-.3-.2-.9V5.7h.8c.7 0 .8.1.9.7h.4V4.5h-.4c-.1.6-.2.7-.9.7h-.8V3.4c0-.3 0-.4.4-.4h.5c.6 0 .9.1 1 .3.1.2.2.4.4.7h.4c-.1-.6-.1-1.2-.1-1.5h-4.9V3c.8.1.9.1.9 1v3.1c0 .9-.1 1-.9 1v.4h5.2c.1-.3.3-1.2.3-1.6h-.4zm-6.1 1.7v-.4c-.8-.1-.9-.1-.9-1V4c0-.9.1-1 .9-1.1v-.3h-3.1V3c.7.1.8.1.8 1v1.1h-2.6V4c0-.9.1-1 .8-1v-.4h-3.1V3c.8.1.9.1.9 1v3.1c0 .9-.1 1-.9 1v.4h3.1v-.3c-.7-.1-.8-.1-.8-1V5.7h2.6v1.4c0 .9-.1 1-.8 1v.4h3.1zm-7.6-6.2c-.1-.8-.1-1.8-.1-2.4h-.3c-.2.2-.4.3-.7.3h-5.1c-.4 0-.5 0-.7-.3h-.3c0 .7-.1 1.5-.2 2.4h.5c.2-.6.3-1 .5-1.2.2-.2.4-.4 1.5-.4h.6v6.1c0 1.1-.1 1.1-1.2 1.2v.4h4v-.3C19.1 8.1 19 8 19 6.9V.8h.7c.8 0 1.1.1 1.3.3.2.2.4.6.5 1.2l.4.1z"/></svg>